HIERARCHY
ROOT SpineBase
{
  OFFSET 0.000000 0.000000 0.000000
  CHANNELS 6 Xposition Yposition Zposition Zrotation Xrotation Yrotation
  JOINT SpineMid
  {
    OFFSET 0.000000 31.930209 0.000000
    CHANNELS 3 Zrotation Xrotation Yrotation
    JOINT SpineShoulder
    {
      OFFSET -0.095706 23.515896 -0.935421
      CHANNELS 3 Zrotation Xrotation Yrotation
      JOINT Neck
      {
        OFFSET -0.046735 7.813030 -0.570322
        CHANNELS 3 Zrotation Xrotation Yrotation
        JOINT Head
        {
          OFFSET -4.537286 13.227676 0.839646
          CHANNELS 3 Zrotation Xrotation Yrotation
          End Site
          {
            OFFSET 0 0 0
          }
        }
      }
      JOINT ShoulderLeft
      {
        OFFSET -17.274478 -5.451699 6.682504
        CHANNELS 3 Zrotation Xrotation Yrotation
        JOINT ElbowLeft
        {
          OFFSET -5.346491 -26.892738 3.959096
          CHANNELS 3 Zrotation Xrotation Yrotation
          JOINT WristLeft
          {
            OFFSET -5.495073 -22.140210 -1.799685
            CHANNELS 3 Zrotation Xrotation Yrotation
            JOINT HandLeft
            {
              OFFSET -1.909363 -8.788341 -1.419938
              CHANNELS 3 Zrotation Xrotation Yrotation
              JOINT HandTipLeft
              {
                OFFSET -0.157664 -6.790219 -0.334218
                CHANNELS 3 Zrotation Xrotation Yrotation
                End Site
                {
                  OFFSET 0 0 0
                }
              }
              JOINT ThumbLeft
              {
                OFFSET -2.348149 0.444788 -3.932698
                CHANNELS 3 Zrotation Xrotation Yrotation
                End Site
                {
                  OFFSET 0 0 0
                }
              }
            }
          }
        }
      }
      JOINT ShoulderRight
      {
        OFFSET 12.850393 -4.297629 -8.213554
        CHANNELS 3 Zrotation Xrotation Yrotation
        JOINT ElbowRight
        {
          OFFSET 8.599746 -26.542019 -5.032404
          CHANNELS 3 Zrotation Xrotation Yrotation
          JOINT WristRight
          {
            OFFSET 1.084768 -21.897030 -8.784302
            CHANNELS 3 Zrotation Xrotation Yrotation
            JOINT HandRight
            {
              OFFSET -1.370094 -7.611354 -1.729402
              CHANNELS 3 Zrotation Xrotation Yrotation
              JOINT HandTipRight
              {
                OFFSET -0.004189 -6.599092 -0.861655
                CHANNELS 3 Zrotation Xrotation Yrotation
                End Site
                {
                  OFFSET 0 0 0
                }
              }
              JOINT ThumbRight
              {
                OFFSET -4.124400 -1.548207 -0.353601
                CHANNELS 3 Zrotation Xrotation Yrotation
                End Site
                {
                  OFFSET 0 0 0
                }
              }
            }
          }
        }
      }
    }
  }
  JOINT HipLeft
  {
    OFFSET -6.663946 0.077869 -0.978466
    CHANNELS 3 Zrotation Xrotation Yrotation
    JOINT KneeLeft
    {
      OFFSET 0.174710 -38.671462 6.851837
      CHANNELS 3 Zrotation Xrotation Yrotation
      JOINT AnkleLeft
      {
        OFFSET 4.280385 -35.878994 9.090424
        CHANNELS 3 Zrotation Xrotation Yrotation
        JOINT FootLeft
        {
          OFFSET -1.947685 -8.398052 -4.133933
          CHANNELS 3 Zrotation Xrotation Yrotation
          End Site
          {
            OFFSET 0 0 0
          }
        }
      }
    }
  }
  JOINT HipRight
  {
    OFFSET 7.112542 1.626824 -6.047238
    CHANNELS 3 Zrotation Xrotation Yrotation
    JOINT KneeRight
    {
      OFFSET 7.145807 -36.899690 -0.824372
      CHANNELS 3 Zrotation Xrotation Yrotation
      JOINT AnkleRight
      {
        OFFSET 7.902078 -37.459339 7.381645
        CHANNELS 3 Zrotation Xrotation Yrotation
        JOINT FootRight
        {
          OFFSET -0.393319 -8.360322 -5.450061
          CHANNELS 3 Zrotation Xrotation Yrotation
          End Site
          {
            OFFSET 0 0 0
          }
        }
      }
    }
  }
}
MOTION
Frames: 6
Frame Time: 0.033333
-22.586273 88.219218 334.838724 -1.230042 1.601220 23.287924 -0.201088 0.095367 -23.324839 -0.238609 -0.747005 -0.081524 -4.108474 2.840407 1.900601 0.000000 0.000000 0.000000 1.693335 -0.858918 0.131088 7.063414 -2.617613 0.240620 -3.203861 -6.880059 1.709135 4.668546 5.469549 -2.590002 0.000000 0.000000 0.000000 0.000000 0.000000 0.000000 -33.991638 25.487431 25.050953 -91.847315 10.971869 32.770405 -25.221499 12.595702 -46.038867 -2.092356 9.369891 -8.894033 0.000000 0.000000 0.000000 0.000000 0.000000 0.000000 1.797088 -0.973502 -23.079486 -0.809730 -1.414217 -0.159510 -1.823782 3.866530 0.061086 0.000000 0.000000 0.000000 1.245369 -1.411129 -23.096655 0.934312 -1.259756 0.058142 -2.678129 -2.509665 0.781772 0.000000 0.000000 0.000000
-22.432316 88.540195 334.566532 -1.086968 1.760448 19.905012 -0.229406 0.144673 -19.937943 -0.220559 -0.787115 -0.076636 -6.233831 3.871048 2.550262 0.000000 0.000000 0.000000 2.816070 -1.516377 0.430976 5.406792 -2.992506 0.193898 -2.851829 -6.667068 1.614007 4.268718 4.069253 -2.544800 0.000000 0.000000 0.000000 0.000000 0.000000 0.000000 -37.526541 25.346230 26.820900 -96.283675 8.225897 30.901156 -28.708126 11.149451 -58.841190 -5.483352 11.457724 -12.213562 0.000000 0.000000 0.000000 0.000000 0.000000 0.000000 1.229786 -1.642658 -19.740717 -0.629594 -0.632511 -0.117774 -2.660958 4.445974 0.372639 0.000000 0.000000 0.000000 0.769299 -1.147427 -19.689247 1.411643 -1.409637 0.033491 -2.368728 -2.224114 0.542256 0.000000 0.000000 0.000000
-22.287227 88.793942 334.299373 -0.931834 1.875722 16.135525 -0.270341 0.187909 -16.165510 -0.217671 -0.789979 -0.072075 -8.424612 4.930346 3.257449 0.000000 0.000000 0.000000 3.770500 -1.319409 0.533346 4.625907 -3.908673 0.305558 -3.286201 -7.104589 1.780442 5.102288 4.913831 -3.028609 0.000000 0.000000 0.000000 0.000000 0.000000 0.000000 -40.160160 25.071647 28.034949 -100.108608 5.693928 28.075879 -33.610994 10.341146 -76.148051 -7.829336 16.097041 -0.162392 0.000000 0.000000 0.000000 0.000000 0.000000 0.000000 0.374211 -2.060671 -16.113540 -0.000000 0.000000 0.000000 -3.940122 5.942688 0.740571 0.000000 0.000000 0.000000 0.374743 -0.851621 -15.880985 1.783857 -1.627463 -0.004601 -2.185476 -2.279207 0.415116 0.000000 0.000000 0.000000
-22.184864 88.985184 334.056136 -0.810900 1.938086 12.596181 -0.313481 0.212865 -12.624695 -0.227847 -0.774146 -0.069556 -10.293377 5.971138 3.956515 0.000000 0.000000 0.000000 4.382457 -1.354495 0.633351 4.547965 -4.845707 0.472958 -5.026401 -7.104809 2.022520 6.017984 4.959479 -3.505130 0.000000 0.000000 0.000000 0.000000 0.000000 0.000000 -41.908772 24.845026 28.820277 -102.750462 4.177842 26.034132 -39.986815 11.594634 -100.243924 -14.972093 18.415955 21.415946 0.000000 0.000000 0.000000 0.000000 0.000000 0.000000 0.412335 -3.073406 -12.532062 -0.260358 0.971898 -0.039591 -4.281733 6.546778 0.804051 0.000000 0.000000 0.000000 0.122510 -0.623164 -12.306268 1.987941 -1.830167 -0.043529 -1.874917 -2.283612 0.228211 0.000000 0.000000 0.000000
-22.101938 89.088548 333.868448 -0.764153 1.931634 9.508592 -0.351945 0.237529 -9.537529 -0.246698 -0.740061 -0.070282 -11.658380 7.051173 4.651169 0.000000 0.000000 0.000000 4.827372 -1.488789 0.729945 5.116753 -5.561688 0.602701 -7.105737 -7.451214 2.418149 7.608653 7.071920 -4.395459 0.000000 0.000000 0.000000 0.000000 0.000000 0.000000 -44.287024 24.771644 30.150761 -105.057119 2.742166 22.064664 -44.382907 14.303813 -127.379240 -24.004302 13.679970 49.131092 0.000000 0.000000 0.000000 0.000000 0.000000 0.000000 0.279539 -3.641097 -9.483088 -0.112103 1.613448 -0.011022 -3.341518 5.351541 0.543318 0.000000 0.000000 0.000000 -0.026621 -0.373935 -9.179287 2.161657 -2.059645 -0.082552 -1.660692 -2.174680 0.089491 0.000000 0.000000 0.000000
-22.042895 89.153256 333.708350 -0.782320 1.884684 7.008628 -0.376585 0.262301 -7.038850 -0.260725 -0.704170 -0.072479 -12.360247 8.116460 5.275804 0.000000 0.000000 0.000000 4.688232 -2.412960 0.906288 6.906165 -4.720449 0.272345 -9.515706 -8.527473 3.005301 8.525027 10.732607 -5.268811 0.000000 0.000000 0.000000 0.000000 0.000000 0.000000 -45.854065 24.789750 31.131097 -106.696220 1.797412 18.201141 -45.947549 15.572293 -150.933684 -27.756573 2.899509 69.009932 0.000000 0.000000 0.000000 0.000000 0.000000 0.000000 0.282105 -4.064346 -7.011061 0.006569 2.114996 0.010634 -2.252936 5.191477 0.006293 0.000000 0.000000 0.000000 -0.056758 -0.142621 -6.642502 2.265486 -2.312667 -0.123479 -1.606557 -1.947603 0.052896 0.000000 0.000000 0.000000
